<?xml version="1.0" standalone="no"?>
<!DOCTYPE svg PUBLIC "-//W3C//DTD SVG 20010904//EN"
 "http://www.w3.org/TR/2001/REC-SVG-20010904/DTD/svg10.dtd">
<svg version="1.0" xmlns="http://www.w3.org/2000/svg"
 width="315.000000pt" height="315.000000pt" viewBox="0 0 315.000000 315.000000"
 preserveAspectRatio="xMidYMid meet">
<metadata>
Created by potrace 1.11, written by Peter Selinger 2001-2013
</metadata>
<g transform="translate(0.000000,315.000000) scale(0.100000,-0.100000)"
fill="#000000" stroke="none">
<path d="M600 3060 c-359 -74 -556 -310 -554 -660 1 -98 40 -230 100 -337 67
-121 190 -231 328 -293 51 -23 151 -57 151 -50 0 1 12 -3 27 -9 42 -16 135
-26 248 -26 175 0 230 24 478 216 52 40 66 46 113 48 30 1 76 -5 104 -13 27
-9 50 -14 52 -13 9 10 -39 74 -68 89 l-34 18 75 -3 c96 -5 227 15 320 47 77
27 204 98 255 141 97 83 168 161 160 174 -3 5 -31 10 -63 10 -82 2 -137 9
-260 35 -106 23 -251 101 -421 229 -149 111 -225 162 -286 192 -60 29 -225 27
-385 -4 -48 -10 -69 -1 -96 37 -13 18 -12 24 9 47 22 26 27 27 112 26 50 -1
105 -5 123 -10 39 -12 40 -6 5 26 -44 39 -94 68 -146 86 -63 21 -235 20 -347
-3z m715 -976 c55 -14 114 -28 130 -31 45 -7 44 -13 -3 -13 -42 0 -88 -15
-196 -65 -32 -15 -82 -29 -111 -32 -45 -5 -56 -2 -74 16 -37 37 -20 119 30
143 38 19 97 14 224 -18z"/>
<path d="M1515 2835 c149 -139 341 -270 479 -325 197 -79 367 -54 576 84 74
49 147 70 224 63 34 -3 73 -10 89 -16 32 -13 33 -8 7 29 -56 79 -238 106 -377
56 -38 -13 -89 -33 -115 -44 -67 -30 -116 -35 -144 -17 -51 33 -19 66 72 76
36 4 68 9 71 13 21 20 -88 66 -158 66 -18 0 -56 -13 -84 -29 -157 -89 -277
-79 -550 42 -152 67 -160 68 -90 2z"/>
<path d="M3075 2645 c-129 -73 -160 -83 -345 -109 -19 -2 -55 -8 -80 -11 -97
-14 -233 -119 -289 -225 -18 -34 -31 -64 -28 -66 2 -3 26 7 52 21 47 24 149
60 204 70 14 3 71 7 126 10 135 8 161 12 193 32 56 35 124 97 153 140 28 40
83 162 76 169 -1 1 -29 -13 -62 -31z"/>
<path d="M2284 1769 c-73 -13 -164 -70 -214 -133 -14 -18 -13 -19 15 -11 17 4
69 9 117 10 75 3 91 1 113 -16 33 -27 33 -71 0 -104 -29 -30 -20 -30 -145 -5
-111 22 -224 26 -282 10 -62 -18 -234 -152 -399 -312 -50 -48 -174 -133 -244
-167 -126 -61 -268 -93 -448 -100 -42 -2 168 -233 278 -306 143 -94 286 -135
463 -132 63 1 105 0 94 -3 -52 -13 -129 -96 -109 -117 3 -3 26 2 50 10 25 8
70 14 101 13 59 -3 61 -4 149 -86 134 -125 166 -152 218 -180 121 -64 264 -74
450 -31 292 68 492 248 594 533 51 144 69 252 61 378 -22 372 -204 624 -516
718 -103 31 -263 45 -346 31z m-206 -1173 c26 -9 38 -28 51 -86 18 -82 -21
-129 -100 -116 -23 4 -83 28 -133 55 -98 52 -138 64 -201 63 -49 -1 -54 -2
133 51 145 42 199 49 250 33z"/>
<path d="M1555 1474 c-277 -146 -391 -158 -547 -56 -74 49 -102 52 -185 21
-95 -36 -92 -64 9 -71 65 -5 88 -21 88 -63 0 -60 -70 -61 -195 -1 -123 59
-181 75 -254 71 -113 -7 -186 -39 -221 -97 -10 -18 -18 -33 -17 -34 1 -1 27 4
57 12 57 15 147 16 156 2 3 -4 15 -8 27 -8 12 0 65 -32 117 -71 176 -130 295
-165 455 -135 86 17 239 102 360 200 101 83 321 308 298 305 -4 0 -71 -34
-148 -75z"/>
<path d="M10 1248 c34 -134 107 -248 209 -323 42 -30 59 -36 117 -40 244 -19
332 -42 442 -116 52 -35 53 -24 5 72 -43 87 -152 202 -223 236 -25 12 -79 27
-120 34 -211 34 -251 47 -358 124 -35 25 -67 45 -72 45 -4 0 -4 -15 0 -32z"/>
</g>
</svg>
