<?xml version="1.0" standalone="no"?>
<!DOCTYPE svg PUBLIC "-//W3C//DTD SVG 20010904//EN"
 "http://www.w3.org/TR/2001/REC-SVG-20010904/DTD/svg10.dtd">
<svg version="1.0" xmlns="http://www.w3.org/2000/svg"
 width="260.000000pt" height="260.000000pt" viewBox="0 0 260.000000 260.000000"
 preserveAspectRatio="xMidYMid meet">
<metadata>
Created by potrace 1.11, written by Peter Selinger 2001-2013
</metadata>
<g transform="translate(0.000000,260.000000) scale(0.100000,-0.100000)"
fill="#000000" stroke="none">
<path d="M1180 2594 c-14 -2 -59 -9 -100 -15 -162 -24 -340 -96 -508 -205
-105 -69 -269 -230 -339 -334 -358 -533 -296 -1207 151 -1656 111 -110 204
-178 341 -247 304 -152 665 -177 986 -68 416 141 732 478 845 903 183 691
-243 1412 -936 1586 -141 35 -335 51 -440 36z m75 -195 c154 -72 281 -236 356
-459 31 -93 31 -97 20 -176 -13 -91 -46 -198 -81 -259 -23 -40 -118 -145 -131
-145 -4 0 -31 54 -60 120 -50 116 -77 160 -63 106 3 -15 2 -32 -4 -39 -5 -6
-53 -90 -107 -186 -120 -217 -169 -290 -239 -365 l-56 -59 27 -46 c14 -25 39
-66 54 -91 l28 -45 -55 -17 c-31 -10 -59 -16 -63 -13 -15 9 -121 153 -160 217
-23 37 -53 103 -68 145 -23 68 -27 94 -27 203 -1 132 10 191 51 294 34 84 111
208 180 290 l58 70 7 -40 c4 -21 7 -60 7 -86 1 -66 14 -94 52 -107 75 -26 176
-3 228 53 31 33 51 121 57 261 8 165 -20 277 -99 389 l-20 28 24 -7 c13 -4 51
-20 84 -36z m677 -888 c43 -94 58 -178 57 -326 -1 -147 -10 -233 -27 -244 -7
-4 -23 -35 -36 -69 -13 -34 -34 -75 -45 -91 -25 -34 -77 -61 -120 -61 -42 0
-161 30 -161 41 0 4 16 21 36 36 65 49 115 96 126 117 10 18 2 28 -68 92 l-79
72 76 79 c126 131 124 126 122 338 l-2 180 46 -50 c25 -27 59 -79 75 -114z
m-396 -576 l22 -30 -44 -99 c-41 -93 -43 -100 -27 -113 34 -27 98 -52 167 -64
93 -16 314 -6 379 16 26 9 47 19 47 22 0 2 -11 19 -25 37 -19 25 -25 45 -25
82 0 49 0 50 100 149 55 55 100 93 100 85 0 -36 -32 -545 -35 -548 -1 -2 -171
2 -376 9 -247 8 -378 15 -385 23 -7 6 -41 135 -77 286 -45 191 -67 267 -71
250 -4 -14 -29 -137 -56 -275 -28 -137 -54 -253 -58 -257 -7 -7 -630 -48 -733
-48 l-36 0 -7 103 c-3 56 -13 156 -21 222 -8 65 -15 157 -15 204 l0 84 49 -70
c28 -39 74 -97 104 -129 l55 -59 1 -89 c0 -49 2 -91 5 -93 3 -3 96 -7 208 -10
202 -6 203 -6 239 18 20 13 51 32 68 41 44 24 48 43 17 86 -14 20 -38 54 -52
74 l-26 37 64 78 c68 83 119 163 164 254 l27 57 115 -152 c64 -83 126 -164
138 -181z"/>
</g>
</svg>
