<?xml version="1.0" standalone="no"?>
<!DOCTYPE svg PUBLIC "-//W3C//DTD SVG 20010904//EN"
 "http://www.w3.org/TR/2001/REC-SVG-20010904/DTD/svg10.dtd">
<svg version="1.0" xmlns="http://www.w3.org/2000/svg"
 width="260.000000pt" height="260.000000pt" viewBox="0 0 260.000000 260.000000"
 preserveAspectRatio="xMidYMid meet">
<metadata>
Created by potrace 1.11, written by Peter Selinger 2001-2013
</metadata>
<g transform="translate(0.000000,260.000000) scale(0.100000,-0.100000)"
fill="#000000" stroke="none">
<path d="M1180 2594 c-14 -2 -59 -9 -100 -15 -162 -24 -340 -96 -508 -205
-105 -69 -269 -230 -339 -334 -358 -533 -296 -1207 151 -1656 111 -110 204
-178 341 -247 304 -152 665 -177 986 -68 416 141 732 478 845 903 183 691
-243 1412 -936 1586 -141 35 -335 51 -440 36z m76 -198 c161 -77 279 -232 359
-473 25 -77 26 -86 16 -155 -24 -158 -72 -269 -153 -355 -28 -29 -54 -53 -58
-53 -4 0 -31 54 -60 120 -49 113 -78 161 -65 108 4 -17 -23 -73 -111 -228
-132 -233 -180 -304 -252 -375 -44 -42 -49 -52 -38 -65 7 -8 33 -50 59 -92
l46 -76 -52 -13 c-29 -8 -55 -14 -59 -14 -11 0 -124 148 -166 219 -56 94 -79
159 -92 260 -29 232 42 439 229 670 l56 70 7 -50 c3 -27 7 -73 7 -102 1 -48 4
-54 34 -72 68 -42 195 -16 250 50 36 42 52 135 52 295 0 155 -17 227 -75 319
-18 28 -25 46 -17 46 7 0 44 -15 83 -34z m674 -840 c39 -80 58 -160 66 -271 8
-112 -11 -289 -33 -315 -9 -10 -23 -38 -31 -61 -23 -68 -59 -117 -103 -140
-38 -19 -47 -19 -108 -9 -36 6 -79 17 -95 24 l-30 12 80 59 c49 38 82 71 89
89 9 27 6 32 -63 95 -40 36 -72 70 -72 74 0 5 35 45 79 91 118 123 116 119
113 326 l-2 175 40 -44 c22 -24 53 -71 70 -105z m-502 -480 l129 -169 -44 -99
-43 -99 27 -24 c55 -47 122 -60 313 -60 144 0 184 3 228 18 l52 19 -30 38
c-24 30 -30 47 -30 87 0 48 0 49 101 148 l101 100 -6 -65 c-3 -36 -11 -159
-17 -275 -6 -115 -14 -213 -18 -217 -3 -4 -174 -1 -379 5 -279 9 -375 15 -381
25 -4 7 -36 134 -71 282 -35 149 -67 267 -71 263 -3 -5 -30 -129 -59 -276 -29
-148 -58 -271 -64 -273 -10 -3 -697 -44 -746 -44 -18 0 -20 7 -20 63 0 34 -7
116 -15 182 -20 163 -30 363 -18 350 5 -5 27 -35 49 -65 21 -30 62 -80 92
-111 l53 -56 4 -93 c3 -51 8 -96 11 -101 7 -13 434 -12 434 1 0 5 22 21 48 34
84 43 88 63 26 137 -61 73 -61 73 -6 137 56 65 149 204 183 275 13 26 26 44
30 40 5 -5 66 -84 137 -177z"/>
</g>
</svg>
