<?xml version="1.0" standalone="no"?>
<!DOCTYPE svg PUBLIC "-//W3C//DTD SVG 20010904//EN"
 "http://www.w3.org/TR/2001/REC-SVG-20010904/DTD/svg10.dtd">
<svg version="1.0" xmlns="http://www.w3.org/2000/svg"
 width="260.000000pt" height="260.000000pt" viewBox="0 0 260.000000 260.000000"
 preserveAspectRatio="xMidYMid meet">
<metadata>
Created by potrace 1.11, written by Peter Selinger 2001-2013
</metadata>
<g transform="translate(0.000000,260.000000) scale(0.100000,-0.100000)"
fill="#000000" stroke="none">
<path d="M770 2570 c0 -4 15 -19 33 -34 17 -14 57 -45 87 -69 66 -52 93 -98
131 -224 19 -64 37 -103 54 -119 78 -72 210 -138 355 -178 140 -38 145 -36 74
32 -91 86 -124 152 -138 277 -11 87 -18 107 -45 131 -63 54 -260 141 -361 159
-19 3 -53 10 -75 15 -67 15 -115 19 -115 10z"/>
<path d="M740 2369 c-56 -25 -77 -44 -101 -91 -45 -88 -27 -163 62 -259 86
-92 102 -116 95 -144 -8 -32 -37 -44 -99 -40 -57 3 -87 26 -87 67 0 36 -16 68
-35 68 -17 0 -59 -53 -79 -100 -17 -42 -8 -67 39 -99 112 -77 146 -166 97
-256 -29 -51 -50 -76 -163 -192 -60 -61 -109 -114 -109 -117 0 -3 68 28 150
70 245 122 421 239 524 348 66 70 89 118 89 187 0 107 -50 172 -232 301 -89
63 -131 114 -131 161 0 13 11 45 24 70 26 53 21 56 -44 26z"/>
<path d="M1283 1908 c0 -56 -22 -139 -54 -204 -65 -132 -178 -228 -471 -398
-211 -123 -354 -225 -370 -265 -18 -45 -11 -132 17 -212 15 -41 29 -82 32 -91
6 -19 -54 -54 -103 -61 -31 -4 -111 16 -127 32 -16 16 -17 97 -2 146 7 25 11
45 9 45 -14 0 -107 -56 -141 -85 -60 -51 -73 -85 -69 -180 11 -271 241 -460
681 -560 23 -6 113 -21 165 -29 89 -14 209 -21 370 -21 177 0 316 10 420 30
14 3 42 8 64 11 194 29 430 108 571 190 247 144 381 414 294 587 -40 79 -128
144 -374 276 -78 43 -93 57 -101 97 -5 25 0 45 20 80 14 26 26 48 26 49 0 2
-19 -1 -42 -7 -89 -19 -148 -82 -148 -155 0 -37 16 -60 112 -160 94 -99 102
-129 41 -158 -75 -36 -258 -18 -300 30 -32 36 -19 82 64 226 76 130 87 166 80
256 -15 201 -184 364 -527 510 -141 60 -137 59 -137 21z"/>
</g>
</svg>
